<svg width="129" height="63" viewBox="0 0 129 63" fill="none" xmlns="http://www.w3.org/2000/svg">
<g filter="url(#filter0_d_146_341)">
<path d="M19.36 20.16C19.36 22.5867 18.4667 24.56 16.68 26.08C14.8933 27.5733 12.52 28.32 9.56 28.32C6.38667 28.32 3.8 27.76 1.8 26.64V20.44C4.22667 22.2 6.81333 23.08 9.56 23.08C10.4933 23.08 11.2667 22.84 11.88 22.36C12.4933 21.8533 12.8 21.2 12.8 20.4C12.8 20.1333 12.76 19.88 12.68 19.64C12.6 19.4 12.4533 19.1733 12.24 18.96C12.0267 18.7467 11.8133 18.5733 11.6 18.44C11.4133 18.28 11.12 18.1067 10.72 17.92C10.3467 17.7067 10.0267 17.5333 9.76 17.4C9.49333 17.2667 9.09333 17.08 8.56 16.84C8.05333 16.6 7.64 16.4133 7.32 16.28C5.58667 15.48 4.18667 14.4933 3.12 13.32C2.08 12.1467 1.56 10.5867 1.56 8.64C1.56 6.32 2.41333 4.45333 4.12 3.04C5.82667 1.6 8.18667 0.879999 11.2 0.879999C13.8933 0.879999 16.2133 1.33333 18.16 2.24V8C16 6.74667 13.76 6.12 11.44 6.12C10.4 6.12 9.6 6.33333 9.04 6.76C8.50667 7.18667 8.24 7.73333 8.24 8.4C8.24 9.06667 8.57333 9.66667 9.24 10.2C9.90667 10.7067 10.9067 11.2533 12.24 11.84C13.0667 12.2133 13.7467 12.5467 14.28 12.84C14.84 13.1067 15.4667 13.4933 16.16 14C16.88 14.48 17.44 15 17.84 15.56C18.2667 16.0933 18.6267 16.76 18.92 17.56C19.2133 18.36 19.36 19.2267 19.36 20.16ZM52.8669 17.56C52.8669 21.08 51.8802 23.7733 49.9069 25.64C47.9335 27.48 45.2669 28.4 41.9069 28.4C38.6002 28.4 35.9469 27.48 33.9469 25.64C31.9469 23.8 30.9469 21.2 30.9469 17.84V1.04H37.1069V17.8C37.1069 21.1333 38.7069 22.8 41.9069 22.8C45.1069 22.8 46.7069 21.0667 46.7069 17.6V1.04H52.8669V17.56ZM72.4256 28H66.2656V1.04H72.4256V28ZM109.214 28H101.494L92.4541 14.6L101.174 1.04H108.494L99.6541 14.52L109.214 28ZM92.1741 28H86.0141V1.04H92.1741V28ZM127.058 28H120.898V1.04H127.058V28Z" fill="#505050"/>
</g>
<defs>
<filter id="filter0_d_146_341" x="0.560059" y="0.879997" width="127.499" height="61.52" filterUnits="userSpaceOnUse" color-interpolation-filters="sRGB">
<feFlood flood-opacity="0" result="BackgroundImageFix"/>
<feColorMatrix in="SourceAlpha" type="matrix" values="0 0 0 0 0 0 0 0 0 0 0 0 0 0 0 0 0 0 127 0" result="hardAlpha"/>
<feOffset dy="33"/>
<feGaussianBlur stdDeviation="0.5"/>
<feComposite in2="hardAlpha" operator="out"/>
<feColorMatrix type="matrix" values="0 0 0 0 0.358333 0 0 0 0 0.358333 0 0 0 0 0.358333 0 0 0 0.31 0"/>
<feBlend mode="normal" in2="BackgroundImageFix" result="effect1_dropShadow_146_341"/>
<feBlend mode="normal" in="SourceGraphic" in2="effect1_dropShadow_146_341" result="shape"/>
</filter>
</defs>
</svg>
